<svg id="visual" viewBox="0 0 900 300" width="900" height="300" xmlns="http://www.w3.org/2000/svg" xmlns:xlink="http://www.w3.org/1999/xlink" version="1.1"><rect x="0" y="0" width="900" height="300" fill="#FF0066"></rect><g transform="translate(459.9643420834735 162.11239318942904)"><path d="M69.2 -114.3C88.6 -108.5 102.8 -88 106.5 -66.5C110.3 -45 103.6 -22.5 104.2 0.3C104.8 23.2 112.6 46.3 106.3 63.4C99.9 80.4 79.5 91.3 59.4 92.2C39.3 93.1 19.7 84.1 1.9 80.8C-15.8 77.4 -31.7 79.9 -47.4 76.4C-63.1 73 -78.8 63.8 -94.3 50C-109.9 36.3 -125.5 18.2 -128.2 -1.6C-131 -21.3 -120.9 -42.7 -109.9 -64.3C-98.9 -86 -87 -107.9 -68.5 -114.3C-50 -120.6 -25 -111.3 -0.1 -111.2C24.8 -111 49.7 -120 69.2 -114.3" fill="#BB004B"></path></g></svg>